<mxfile host="app.diagrams.net" agent="Mozilla/5.0 (Windows NT 10.0; Win64; x64) AppleWebKit/537.36 (KHTML, like Gecko) Chrome/131.0.0.0 Safari/537.36" version="25.0.3">
  <diagram name="Page-1" id="jze6NCNKCR_AcHRuRitR">
    <mxGraphModel dx="1050" dy="1665" grid="1" gridSize="10" guides="1" tooltips="1" connect="1" arrows="1" fold="1" page="1" pageScale="1" pageWidth="850" pageHeight="1100" math="0" shadow="0">
      <root>
        <mxCell id="0" />
        <mxCell id="1" parent="0" />
        <mxCell id="nD3NEYgJrYFvHJ0teJhV-4" style="edgeStyle=orthogonalEdgeStyle;rounded=0;orthogonalLoop=1;jettySize=auto;html=1;entryX=0.5;entryY=0;entryDx=0;entryDy=0;" edge="1" parent="1" source="nD3NEYgJrYFvHJ0teJhV-1" target="nD3NEYgJrYFvHJ0teJhV-2">
          <mxGeometry relative="1" as="geometry" />
        </mxCell>
        <mxCell id="nD3NEYgJrYFvHJ0teJhV-5" style="edgeStyle=orthogonalEdgeStyle;rounded=0;orthogonalLoop=1;jettySize=auto;html=1;entryX=0.5;entryY=0;entryDx=0;entryDy=0;" edge="1" parent="1" source="nD3NEYgJrYFvHJ0teJhV-1" target="nD3NEYgJrYFvHJ0teJhV-3">
          <mxGeometry relative="1" as="geometry" />
        </mxCell>
        <mxCell id="nD3NEYgJrYFvHJ0teJhV-1" value="&lt;b&gt;&lt;i&gt;&lt;font face=&quot;Verdana&quot; style=&quot;font-size: 20px;&quot;&gt;Class Management&lt;/font&gt;&lt;/i&gt;&lt;/b&gt;" style="rounded=0;whiteSpace=wrap;html=1;" vertex="1" parent="1">
          <mxGeometry x="265" y="-1090" width="320" height="50" as="geometry" />
        </mxCell>
        <mxCell id="nD3NEYgJrYFvHJ0teJhV-10" value="" style="edgeStyle=orthogonalEdgeStyle;rounded=0;orthogonalLoop=1;jettySize=auto;html=1;" edge="1" parent="1" source="nD3NEYgJrYFvHJ0teJhV-2" target="nD3NEYgJrYFvHJ0teJhV-9">
          <mxGeometry relative="1" as="geometry" />
        </mxCell>
        <mxCell id="nD3NEYgJrYFvHJ0teJhV-2" value="&lt;font face=&quot;Verdana&quot; style=&quot;font-size: 19px;&quot;&gt;Teacher&lt;/font&gt;" style="rounded=0;whiteSpace=wrap;html=1;" vertex="1" parent="1">
          <mxGeometry x="180" y="-940" width="140" height="50" as="geometry" />
        </mxCell>
        <mxCell id="nD3NEYgJrYFvHJ0teJhV-8" value="" style="edgeStyle=orthogonalEdgeStyle;rounded=0;orthogonalLoop=1;jettySize=auto;html=1;" edge="1" parent="1" source="nD3NEYgJrYFvHJ0teJhV-3" target="nD3NEYgJrYFvHJ0teJhV-7">
          <mxGeometry relative="1" as="geometry" />
        </mxCell>
        <mxCell id="nD3NEYgJrYFvHJ0teJhV-3" value="&lt;font face=&quot;Verdana&quot; style=&quot;font-size: 19px;&quot;&gt;Student&lt;/font&gt;" style="rounded=0;whiteSpace=wrap;html=1;" vertex="1" parent="1">
          <mxGeometry x="530" y="-940" width="140" height="50" as="geometry" />
        </mxCell>
        <mxCell id="nD3NEYgJrYFvHJ0teJhV-7" value="&lt;div&gt;&lt;font face=&quot;Verdana&quot; style=&quot;font-size: 14px;&quot;&gt;&lt;br&gt;&lt;/font&gt;&lt;/div&gt;&lt;font face=&quot;Verdana&quot; style=&quot;font-size: 14px;&quot;&gt;Displays the current sesssions attendance and absents of the student&lt;/font&gt;&lt;div&gt;&lt;br&gt;&lt;/div&gt;" style="rounded=0;whiteSpace=wrap;html=1;" vertex="1" parent="1">
          <mxGeometry x="505" y="-845" width="190" height="60" as="geometry" />
        </mxCell>
        <mxCell id="nD3NEYgJrYFvHJ0teJhV-9" value="&lt;div&gt;&lt;font style=&quot;font-size: 14px;&quot; face=&quot;Verdana&quot;&gt;&lt;br&gt;&lt;/font&gt;&lt;/div&gt;&lt;div&gt;&lt;font style=&quot;font-size: 14px;&quot; face=&quot;Verdana&quot;&gt;&lt;br&gt;&lt;/font&gt;&lt;/div&gt;&lt;font style=&quot;font-size: 14px;&quot; face=&quot;Verdana&quot;&gt;manage the&amp;nbsp; attendance&amp;nbsp;&lt;/font&gt;&lt;div&gt;&lt;font style=&quot;font-size: 14px;&quot; face=&quot;Verdana&quot;&gt;of the student&lt;/font&gt;&lt;div&gt;&lt;font style=&quot;font-size: 14px;&quot; face=&quot;Verdana&quot;&gt;&lt;br&gt;&lt;/font&gt;&lt;div&gt;&lt;div&gt;&lt;br&gt;&lt;/div&gt;&lt;/div&gt;&lt;/div&gt;&lt;/div&gt;" style="rounded=0;whiteSpace=wrap;html=1;" vertex="1" parent="1">
          <mxGeometry x="155" y="-840" width="190" height="50" as="geometry" />
        </mxCell>
        <mxCell id="nD3NEYgJrYFvHJ0teJhV-17" value="&lt;div&gt;&lt;font style=&quot;font-size: 14px;&quot; face=&quot;Verdana&quot;&gt;Notes Management&lt;/font&gt;&lt;/div&gt;" style="rounded=0;whiteSpace=wrap;html=1;" vertex="1" parent="1">
          <mxGeometry x="155" y="-790" width="190" height="50" as="geometry" />
        </mxCell>
        <mxCell id="nD3NEYgJrYFvHJ0teJhV-19" value="&lt;font face=&quot;Verdana&quot;&gt;&lt;span style=&quot;font-size: 14px;&quot;&gt;Class Allotment&lt;/span&gt;&lt;/font&gt;" style="rounded=0;whiteSpace=wrap;html=1;" vertex="1" parent="1">
          <mxGeometry x="155" y="-740" width="190" height="50" as="geometry" />
        </mxCell>
      </root>
    </mxGraphModel>
  </diagram>
</mxfile>
